<?xml version="1.0" encoding="UTF-8" standalone="no"?><!DOCTYPE svg PUBLIC "-//W3C//DTD SVG 1.1//EN" "http://www.w3.org/Graphics/SVG/1.1/DTD/svg11.dtd"><svg width="100%" height="100%" viewBox="0 0 64 64" version="1.1" xmlns="http://www.w3.org/2000/svg" xmlns:xlink="http://www.w3.org/1999/xlink" xml:space="preserve" xmlns:serif="http://www.serif.com/" style="fill-rule:evenodd;clip-rule:evenodd;stroke-linejoin:round;stroke-miterlimit:2;"><rect id="Prancheta1" x="0" y="0" width="64" height="64" style="fill:none;"/><g id="Prancheta11" serif:id="Prancheta1"><path d="M20.222,42.251c-4.238,-4.281 -6.855,-10.168 -6.855,-16.661c-0,-13.074 10.615,-23.69 23.689,-23.69c13.075,0 23.69,10.616 23.69,23.69c0,13.075 -10.615,23.69 -23.69,23.69c-5.112,0 -9.848,-1.623 -13.721,-4.381l-16.604,16.604c-0.795,0.795 -2.086,0.795 -2.881,0c-0.795,-0.795 -0.795,-2.085 -0,-2.88l16.372,-16.372Zm3.885,-0.959c3.519,2.907 8.032,4.655 12.949,4.655c11.236,-0 20.357,-9.122 20.357,-20.357c0,-11.235 -9.121,-20.356 -20.357,-20.356c-11.235,-0 -20.356,9.121 -20.356,20.356c-0,6.171 2.751,11.703 7.092,15.437c0.103,0.07 0.201,0.151 0.292,0.242c0.008,0.008 0.015,0.016 0.023,0.023Z" style="fill:#fff;"/></g></svg>