<svg id="Layer_1" data-name="Layer 1" xmlns="http://www.w3.org/2000/svg" viewBox="0 0 246.65 118.35"><defs><style>.cls-1{fill:#fa4616;}.cls-1,.cls-2{fill-rule:evenodd;}.cls-2{fill:#fff;}</style></defs><path class="cls-1" d="M164.54,15.22c0-.94.08-3.33,0-6.86,0-2.69-.85-3.1-2.86-1.83-2.24,1.41-14.45,9.75-17,11.58-2.09,1.49-1.61,3.09,1.16,2.9l92.82-6.38c5.62-.38,7.45.77,7.9,2.28S246,20.4,241.67,23c-1.53.92-69.39,39.91-71.65,41.14-5.18,2.81-5.47.51-5.48-3.85,0-10.33,0-23.43,0-28.62h4.51c0,7.2,0,9.52,0,14.64,0,3.26,1.65,4.62,5.27,2.5,1.18-.69,22.4-14.84,25.07-16.85,3.07-2.3,2.39-4.19-1.28-4.33l-70.63-.12c-7.1-.13-7.35-3.19-.49-6.85,4.69-2.51,30.77-16.82,35.73-19.29S169-.46,169.1,4.73c.06,3.7,0,10.2,0,10.2l-4.44.29c0,.23,0,.26,0,0Z" transform="translate(0 0)"/><path class="cls-2" d="M59,100.6c.31-6.32-.92-8.64-6.23-8.69s-6.58,1.9-6.4,8.69Zm146.15,0c.31-6.32-.92-8.64-6.23-8.69s-6.58,1.9-6.4,8.69ZM93.86,96.36c-1.49-3.7-4.2-4-6.62-4a26,26,0,0,0-6.36.94V111.8S83.06,114,87.34,114c2.62,0,5.31-.88,6.43-3.34C95,107.84,94.89,98.93,93.86,96.36Zm56.75,7.54c-6.84-.66-13.17-.73-13.49,5-.11,2.09,1.29,5.18,6.86,5.12,3.29,0,6.07-1.15,6.63-1.85Zm-34.26,13.9h-8.06V98.21c.06-3.14,1-5.29,2.92-6.76,3.46-2.67,10.07-3.11,20.25-3.09l-4.06,3.86c-8.05.5-11.05,1.5-11.05,6Zm56.49-29.44h9.25L178,92.27h-5.13v13.55c0,6.17,1.26,8.27,4.77,9.33v.11l.06,3c-6.91-.42-12.9-2.25-12.9-12.46V83.11l8.07-4.45Zm-165.11,19c1,4.14,3.25,5.71,7.93,5.68s8.68-1.63,8.68-6.37c0-3.43-1.07-6.89-8.56-8.55C2.58,95.18.47,92.55.43,87.05.4,82.11,3,78,15.71,78c11.12.06,15.56,3.3,15.9,8.85l-7.72.87c0-3.61-4.22-4.85-8.19-4.85-4.23,0-7.12.7-7.3,3.62-.17,2.76.64,4,4.18,5.19a44.6,44.6,0,0,0,5.35,1.36C30,95.55,33.08,99.86,32.84,106.62s-4.45,11.91-17.44,11.67C4.2,118.08,1,113.46,0,108.22ZM138,88.45c9.09-.56,20.71-1.39,20.71,11.44v15.72a39.6,39.6,0,0,1-13.55,2.71c-7.28,0-9.64-.85-12-2.15a7.71,7.71,0,0,1-4.16-7.43c0-7.66,7.29-8.68,11.88-8.9a87.83,87.83,0,0,1,9.8.31c.16-6.69-1.35-8.83-16.87-7.63Zm-57.08-.12c3.4-.59,9.5-.93,13.35-.12,3.4.71,6.38,2.94,7.3,6.07.8,2.74,1.22,11.54,0,16.86s-5.45,7.09-13.63,7.18-13.48-1.89-15.05-2.71v-37h8.06Zm138.43,19.78a87.36,87.36,0,0,1,0-10.1c.7-6.11,4.61-10.53,14.88-10.39,5.64.08,9.7,1.5,12.48,4.21l-5.37,2c-.53-.64-2.65-2-6.14-2-4.62,0-7,1.51-7.67,5.4a58.72,58.72,0,0,0,0,11.41c0,.13,0,.26.08.38.77,3.66,3.11,5.13,7.6,5.08,3.49,0,5.61-1.38,6.14-2l5.37,2c-2.78,2.71-6.84,4.14-12.48,4.21C224,118.49,220.06,114.15,219.31,108.11ZM46.38,104.25v1.47c0,6.11,2.25,8.46,7.9,8.4,3.5,0,6.69-1.38,7.21-2l4.61,2c-2.77,2.71-7.14,4.14-12.78,4.21-11.46.16-15-5.36-15-12.58v-5.33a32.91,32.91,0,0,1,.36-5,8.34,8.34,0,0,1,1.7-4,8.73,8.73,0,0,1,3.91-2.64c4-1.48,12-1.56,16.2,0a9.05,9.05,0,0,1,3.95,2.58,8.93,8.93,0,0,1,1.9,4,26.48,26.48,0,0,1,.49,5.25v3.65Zm146.15,0v1.47c0,6.11,2.24,8.46,7.9,8.4,3.5,0,6.69-1.38,7.21-2l4.61,2c-2.77,2.71-7.15,4.14-12.79,4.21-11.45.16-15-5.36-15-12.58v-5.33a34.22,34.22,0,0,1,.36-5,8.44,8.44,0,0,1,1.7-4,8.76,8.76,0,0,1,3.92-2.64c4-1.48,12-1.56,16.2,0a9.11,9.11,0,0,1,4,2.58,8.92,8.92,0,0,1,1.89,4,25.75,25.75,0,0,1,.49,5.25v3.65Z" transform="translate(0 0)"/></svg>